<?xml version="1.0" encoding="utf-8"?>
<!-- Generator: Adobe Illustrator 23.0.2, SVG Export Plug-In . SVG Version: 6.00 Build 0)  -->
<svg version="1.1" id="Layer_1" xmlns="http://www.w3.org/2000/svg" xmlns:xlink="http://www.w3.org/1999/xlink" x="0px" y="0px"
	 viewBox="0 0 2880 440" style="enable-background:new 0 0 2880 440;" xml:space="preserve">
<style type="text/css">
	.st0{fill:#E6E6E6;}
	.st1{fill:#FFFFFF;stroke:#111111;stroke-width:1.3927;stroke-miterlimit:10;}
	.st2{fill:#333333;}
	.st3{fill:none;stroke:#555555;stroke-width:1.2207;stroke-miterlimit:10;}
	.st4{opacity:0.3;}
	.st5{fill:#FFFFFF;stroke:#111111;stroke-width:4.4593;stroke-miterlimit:10;}
	.st6{fill:none;stroke:#555555;stroke-width:3.9087;stroke-miterlimit:10;}
	.st7{font-family:'SFCompactDisplay-Semibold';}
	.st8{font-size:141px;}
</style>
<rect x="-24" y="-35" class="st0" width="2937" height="509"/>
<g>
	<circle class="st1" cx="212.5" cy="217.8" r="142.1"/>
	<g>
		<g>
			<path class="st2" d="M254,222.6c-4.4,10-12,15.1-22.9,15.1h-64.6v-66.3h64.7c8.6,0,15.5,3.3,20.1,9.6c4.3,5.8,6.4,13.4,6.4,22.4
				C257.8,210.5,256.5,216.8,254,222.6z M166.8,269.4v-25.8h49v25.8H166.8z"/>
		</g>
	</g>
	<circle class="st3" cx="212.5" cy="217.8" r="98.9"/>
</g>
<g class="st4">
	<circle class="st5" cx="2701.5" cy="219.8" r="454.8"/>
	<g>
		<g>
			<path class="st2" d="M2834.2,235.1c-14.2,31.9-38.6,48.4-73.2,48.4h-206.9V71.1h207.3c27.5,0,49.6,10.6,64.5,30.7
				c13.8,18.5,20.5,42.9,20.5,71.6C2846.4,196.2,2842.5,216.6,2834.2,235.1z M2555.3,385v-82.6h157V385H2555.3z"/>
		</g>
	</g>
	<circle class="st6" cx="2701.5" cy="219.8" r="316.6"/>
</g>
<text transform="matrix(1 0 0 1 440.415 269.1609)" class="st7 st8">Plate Sample Header Image</text>
</svg>
